#N canvas 401 106 848 486 12;
#X obj 216 383 dac~;
#X obj 40 72 mtof;
#X obj 56 33 hsl 128 15 0 127 0 0 empty empty carrier_frequency -2
-8 0 10 -262144 -1 -1 4700 1;
#X obj 102 241 +~;
#X floatatom 224 60 5 0 0 0 - - -;
#X msg 228 38 1000;
#X obj 215 88 osc~;
#X msg 239 153 2000;
#X floatatom 235 194 5 0 0 0 - - -;
#X obj 130 213 *~;
#X obj 110 277 osc~;
#X obj 477 35 adc~;
#X obj 487 127 *~;
#X obj 532 48 hsl 128 15 0 127 0 0 empty empty empty -2 -8 0 10 -262144
-1 -1 8500 1;
#X obj 528 70 mtof;
#X obj 528 94 osc~;
#X obj 148 348 *~;
#X msg 173 307 0;
#X obj 385 289 *~;
#X msg 429 258 0;
#X msg 465 261 1;
#X obj 123 140 adc~;
#X msg 215 306 0.5;
#X floatatom 275 44 5 0 0 0 - - -;
#X msg 279 22 1000;
#X obj 277 89 phasor~;
#X obj 303 172 *~;
#X obj 343 162 +~;
#X connect 1 0 3 0;
#X connect 2 0 1 0;
#X connect 3 0 10 0;
#X connect 4 0 6 0;
#X connect 5 0 4 0;
#X connect 7 0 8 0;
#X connect 8 0 9 1;
#X connect 9 0 3 1;
#X connect 10 0 16 0;
#X connect 11 0 12 0;
#X connect 12 0 18 0;
#X connect 13 0 14 0;
#X connect 14 0 15 0;
#X connect 15 0 12 1;
#X connect 16 0 0 0;
#X connect 16 0 0 1;
#X connect 17 0 16 1;
#X connect 18 0 0 0;
#X connect 18 0 0 1;
#X connect 19 0 18 1;
#X connect 20 0 18 1;
#X connect 21 0 9 0;
#X connect 21 1 9 0;
#X connect 22 0 16 1;
#X connect 23 0 25 0;
#X connect 24 0 23 0;
